<svg id="Layer_1_1_" enable-background="new 0 0 64 64" height="512" viewBox="0 0 64 64" width="512" xmlns="http://www.w3.org/2000/svg"><path d="m61 56h-2v-21c0-1.654-1.346-3-3-3h-26v-2c0-1.654-1.346-3-3-3h-9v-4.206c3.666-1.872 6-5.646 6-9.794 0-.127-.024-.253-.071-.372l-3.749-9.371c-.305-.764-1.034-1.257-1.857-1.257h-.323c-1.103 0-2 .897-2 2v8.828c0 1.626-1.187 3.013-2.702 3.158-.862.085-1.683-.19-2.316-.766-.624-.568-.982-1.377-.982-2.22v-9c0-1.103-.897-2-2-2h-.323c-.823 0-1.552.493-1.857 1.257l-3.749 9.372c-.047.118-.071.244-.071.371 0 4.148 2.334 7.923 6 9.794v4.206h-3c-1.654 0-3 1.346-3 3v29c0 1.654 1.346 3 3 3h4 8 10 30c2.757 0 5-2.243 5-5 0-.552-.448-1-1-1zm-4-21v21h-2v-19c0-.552-.448-1-1-1h-24c-.552 0-1 .448-1 1v19h-2v-21c0-.551.449-1 1-1h28c.551 0 1 .449 1 1zm-4 21h-22v-18h22zm-43.6-34.754c-3.223-1.41-5.326-4.558-5.398-8.059l3.675-9.187h.323v9c0 1.405.597 2.754 1.637 3.7s2.444 1.411 3.852 1.277c2.529-.242 4.511-2.503 4.511-5.149v-8.828h.323l3.675 9.188c-.073 3.5-2.175 6.649-5.398 8.059-.364.159-.6.519-.6.916v4.837h-6v-4.838c0-.397-.235-.757-.6-.916zm-5.4 37.754v-29c0-.551.449-1 1-1h22c.551 0 1 .449 1 1v2c-1.654 0-3 1.346-3 3v21h-2c-.552 0-1 .448-1 1 0 1.13.391 2.162 1.026 3h-3.21c.112-.314.184-.648.184-1v-16c0-1.654-1.346-3-3-3h-8c-1.654 0-3 1.346-3 3v16c0 .352.072.686.184 1h-1.184c-.551 0-1-.449-1-1zm7-17h4v1h-4zm-2 18c-.551 0-1-.449-1-1v-16c0-.551.449-1 1-1v1c0 1.103.897 2 2 2h4c1.103 0 2-.897 2-2v-1c.551 0 1 .449 1 1v16c0 .551-.449 1-1 1zm48 0h-30c-1.304 0-2.416-.836-2.829-2h35.657c-.412 1.164-1.524 2-2.828 2z"/><path d="m15 30h2v2h-2z"/><path d="m36 53h11c2.757 0 5-2.243 5-5 0-2.691-2.136-4.892-4.802-4.996-1.062-1.846-3.032-3.004-5.198-3.004-2.968 0-5.44 2.167-5.917 5.001-2.205-.038-4.083 1.766-4.083 3.999 0 2.206 1.794 4 4 4zm0-6c.216 0 .438.042.678.129.314.115.662.065.931-.132.269-.196.422-.513.41-.846-.002-.034-.014-.117-.019-.151 0-2.206 1.794-4 4-4 1.605 0 3.049.955 3.68 2.433.172.403.584.652 1.021.603l.165-.02c.044-.007.088-.016.134-.016 1.654 0 3 1.346 3 3s-1.346 3-3 3h-11c-1.103 0-2-.897-2-2s.897-2 2-2z"/><path d="m61 12c-.825 0-1.505-.455-1.821-1.217-.315-.762-.156-1.564.427-2.147.188-.188.293-.442.293-.707s-.105-.52-.293-.707l-2.829-2.828c-.391-.391-1.023-.391-1.414 0-.583.582-1.386.742-2.147.427-.761-.316-1.216-.997-1.216-1.821 0-.552-.448-1-1-1h-4c-.552 0-1 .448-1 1 0 .824-.455 1.505-1.216 1.82-.761.316-1.564.157-2.148-.427-.391-.391-1.023-.391-1.414 0l-2.828 2.829c-.188.188-.293.442-.293.707s.105.52.293.707c.583.583.743 1.386.427 2.147-.316.762-.996 1.217-1.821 1.217-.552 0-1 .448-1 1v4c0 .552.448 1 1 1 .824 0 1.505.455 1.82 1.216.316.762.156 1.565-.427 2.148-.391.391-.391 1.024 0 1.414l2.829 2.828c.391.391 1.023.391 1.414 0 .583-.583 1.384-.743 2.147-.427.762.316 1.217.997 1.217 1.821 0 .552.448 1 1 1h4c.552 0 1-.448 1-1 0-.824.455-1.505 1.216-1.82.762-.315 1.565-.156 2.148.427.391.391 1.023.391 1.414 0l2.828-2.829c.391-.391.391-1.023 0-1.414-.583-.583-.743-1.386-.427-2.147.316-.762.997-1.217 1.821-1.217.552 0 1-.448 1-1v-4c0-.552-.448-1-1-1zm-1 4.122c-1.195.3-2.174 1.136-2.668 2.329-.495 1.193-.394 2.477.239 3.534l-1.587 1.587c-1.057-.633-2.34-.733-3.533-.24-1.193.494-2.029 1.474-2.329 2.668h-2.244c-.3-1.195-1.136-2.174-2.329-2.668-1.192-.493-2.477-.394-3.534.239l-1.587-1.587c.633-1.057.734-2.34.24-3.533s-1.473-2.029-2.668-2.329v-2.244c1.195-.3 2.174-1.136 2.668-2.329s.393-2.477-.24-3.534l1.587-1.587c1.056.633 2.341.734 3.533.24 1.194-.494 2.03-1.473 2.33-2.668h2.244c.3 1.195 1.136 2.174 2.329 2.668 1.192.494 2.476.394 3.534-.239l1.586 1.586c-.633 1.057-.734 2.341-.24 3.533.494 1.193 1.473 2.03 2.668 2.33v2.244z"/><path d="m49 8c-3.86 0-7 3.14-7 7s3.14 7 7 7 7-3.14 7-7-3.14-7-7-7zm0 12c-2.757 0-5-2.243-5-5s2.243-5 5-5 5 2.243 5 5-2.243 5-5 5z"/><path d="m33 14h2v2h-2z"/><path d="m29 14h2v2h-2z"/><path d="m25 14h2v2h-2z"/><path d="m30 22h2v2h-2z"/><path d="m26 22h2v2h-2z"/><path d="m22 22h2v2h-2z"/><path d="m34 22h2v2h-2z"/></svg>