<?xml version="1.0" encoding="UTF-8"?>
<svg viewBox="0 0 73 74" version="1.1" xmlns="http://www.w3.org/2000/svg" xmlns:xlink="http://www.w3.org/1999/xlink">
    
    <title>Artboard</title>
    <desc>Created with Sketch.</desc>
    <g id="Artboard" stroke="none" stroke-width="1" fill="none" fill-rule="evenodd">
        <path d="M24.2062384,42.8292306 C24.2062384,44.8969565 24.4277196,44.3494295 24.9927279,45.4458138 C25.6476647,46.7167257 25.3843025,46.2080417 21.3783707,46.2080417 C20.6168043,46.2080417 19.6987622,47.9434735 19.3637141,48.6272172 C18.5977797,50.1913141 18.9816462,50.6654118 19.6602214,52.2670215 C20.2190631,53.5863541 20.0988158,52.7552198 20.7257463,53.6414261 C19.9541593,54.0248014 20.0381783,53.7108647 19.2725008,53.9386018 L18.5674609,54.3347475 C17.0057873,55.4023986 16.81,55.5990081 16.81,57.9213422 C16.81,59.3204892 17.6244958,60.7324066 18.9855003,60.8494678 C18.7565679,61.7367382 15.3143596,63.930571 18.0227508,66.3513428 C18.726506,66.9802806 19.3963453,66.8951452 19.6381247,67.8324327 C18.0995755,68.2578437 18.7760952,69.9637442 19.7241991,70.6714322 C20.2999988,71.101366 19.053589,70.9859011 21.1607436,70.9859011 C22.0006763,70.9859011 22.4659924,69.1842232 22.4659924,69.1839572 C22.4659924,67.8763307 21.4885974,67.7523522 21.1607436,66.4809083 C22.0325367,66.2398687 21.6810445,66.3571959 22.0870077,65.6380678 C22.1114169,65.594702 22.1386524,65.5348412 22.1628047,65.4909432 C22.8552545,64.2261505 22.6836195,65.5433547 22.6836195,64.0032022 C22.6836195,63.0425024 22.7350072,64.0220916 22.4027854,63.3928878 L22.1628047,62.9656145 C22.1386524,62.9219826 22.1114169,62.8618557 22.0870077,62.8187559 C21.6810445,62.0993618 22.0325367,62.2169551 21.1607436,61.9759155 L21.1607436,60.8494678 C23.2776618,60.6672248 23.7712411,57.9269292 23.7712411,57.9213422 C23.7712411,56.8236276 23.0823884,55.4747637 22.5017068,54.9559698 L21.5957409,54.3171883 C26.0202259,54.3171883 24.6538257,53.3833594 26.1641116,52.9656639 C26.1641116,53.7805693 26.128911,54.6587941 26.1463828,55.4617273 C26.1697642,56.5317729 26.4256752,56.7576477 26.8814845,57.4038786 C29.1217333,60.5807592 33.778234,58.8123373 33.778234,56.1191322 C33.778234,53.7297541 34.1153377,53.4192759 32.5932326,51.9403144 C31.2815604,50.6656779 29.2150021,50.6795124 28.3691598,51.1940495 C27.0266549,52.0108172 27.000961,52.1472999 26.816736,52.9656639 L26.7794798,50.8995342 C27.0585153,50.1229397 27.0343631,51.4172638 27.0343631,50.0372722 L26.4693548,48.1446059 C25.9534218,46.5424642 25.8776249,48.0780939 25.5114872,46.6584611 C26.795667,46.7691372 28.4464984,49.1055717 31.3129069,45.9079394 C31.6168654,45.568728 31.4359805,45.8871876 31.7124466,45.4205392 C32.2211853,44.5617359 32.0891188,41.9781426 31.7741119,41.300252 L31.0695859,40.4531548 C30.2761591,39.5714714 29.1276429,39 27.9046146,39 C27.4279932,39 27.3943342,39.2846715 26.7057384,39.5605634 C25.9171934,39.8768946 25.9973583,39.6055255 25.4436554,40.2810217 C25.1224819,40.6729106 25.2360489,40.6079948 25.1083503,40.8349339 C25.0839411,40.8780337 25.0567056,40.9384266 25.0322964,40.9815264 L24.7840936,41.4000201 C24.4446776,41.9310521 24.2062384,41.9922432 24.2062384,42.8292306 L24.2062384,42.8292306 Z" id="Path" fill="#F89C35"></path>
        <path d="M57.5095157,25.2921165 L57.5095157,28.2278427 C55.7570677,28.2278427 56.0480056,27.6820953 54.2672246,28.0771354 C53.3067886,28.2899929 53.2635021,28.2878589 52.3620932,29.3180038 L51.7503105,30.2766628 C50.6941195,32.2438607 51.8518371,33.0216708 50.9171107,33.0483447 C50.5752784,33.058214 48.0426237,30.4628464 45.5115432,32.7410617 C43.0885477,34.9221841 43.3957508,37.5706328 45.5333176,39.2756266 C46.7114978,40.2153471 45.9499175,39.9715479 49.06917,39.9715479 C49.7208288,39.9715479 49.8207813,39.8592509 50.2100976,39.5509009 C50.2463009,39.5220931 50.2908991,39.4727465 50.325266,39.4420715 L51.1067843,38.6557258 C52.5976768,36.7357406 51.5315168,34.5226095 51.5123658,33.6479733 L52.2122957,34.9955373 C54.4639815,35.2043937 51.8455408,36.1323776 56.3990199,36.1323776 C57.1154773,36.1323776 58.6816621,34.7581398 59.1751284,33.0712842 C59.6035337,31.6068887 59.4631804,32.0726145 59.1124285,30.8605538 C58.3044136,28.0685997 61.1762771,31.1865085 63.2241227,29.0699368 C64.3716089,27.8842833 64.3949574,27.0779322 64.3949574,25.5177775 C64.3949574,25.0368476 63.2401256,23.6129963 62.8403156,23.2595675 C63.536048,23.2595675 64.6546765,23.1480708 65.1678184,22.9160081 C66.9653893,22.1021883 66.594437,19.2875614 65.803999,18.4393323 C65.280101,17.8767804 64.64051,17.7716853 64.3949574,17.6135093 C64.8359551,17.60364 65.7801259,17.4547998 66.0519127,17.2654153 C67.213303,16.4563968 67.2093679,14 64.8393656,14 C62.6448705,14 63.1559137,15.989604 63.4770209,17.0157478 C64.0638811,18.8906542 61.8455128,16.5660264 61.2392393,19.6175172 C60.6403113,22.6321981 63.1923793,22.2040825 60.2124307,22.6127262 C59.3789685,22.7268903 57.5095157,23.863464 57.5095157,25.2921165 L57.5095157,25.2921165 Z" id="Path" fill="#1F79BB"></path>
        <path d="M15.0986623,44.1285344 C16.2500822,44.1285344 15.4232305,44.1301429 15.7519137,44.3556065 C14.6740488,44.3556065 14.8731105,44.1347004 14.266924,43.8609807 L12.9213289,43.6746582 C11.8758694,43.6746582 13.147395,43.5194342 12.0656724,44.1446197 C10.0040725,45.3360111 11.0739646,44.2708901 10.1020602,46.4268688 C8.97430133,48.9294877 11.8203173,49.7463575 10.0894581,50.2302597 C10.0220755,50.249026 9.78006384,50.2747626 9.70779469,50.2935289 C6.9497362,51.0087927 6.82062903,54.9918038 8.56614776,55.4778508 L7.1428826,56.9448385 C6.70746736,57.4761926 6.82422963,56.2834608 6.82422963,58.4284478 C6.82422963,59.9083039 10.3083231,61.2503618 10.3083231,57.9745717 C10.3083231,57.1499273 10.0498515,57.1783448 9.87265066,56.3856031 C11.0834805,56.2807799 12.7034927,55.2322805 12.7034927,53.8888821 C12.7034927,51.9902697 12.5736139,52.4921339 12.4856565,51.3921612 C14.158906,51.3921612 15.7568002,50.7921761 16.411852,49.1292146 C17.0095513,47.611826 17.0584166,48.2922381 17.0584166,47.5332757 C17.0584166,46.8735065 16.6001118,46.7051461 16.4051652,45.9445751 C17.615995,45.9727245 19.6143272,47.9061887 21.9680899,45.1606803 C21.9979234,45.1258287 22.0411306,45.0759639 22.0709641,45.0411123 C22.8420066,44.1408665 22.8587237,43.7481148 22.777453,42.0025817 C22.7393895,41.1811544 22.7813108,40.80422 22.5020072,40.2707212 C22.324292,39.9310513 22.3608123,40.0667048 22.1018264,39.7793124 C21.19499,38.7739754 20.1806499,38 18.5827557,38 C17.9904573,38 18.2551012,38.1517389 17.8623788,38.3841728 L17.1466313,38.7731712 C15.9322008,39.3937992 15.1879057,40.7701726 15.0948045,41.6277921 C15.027679,42.2457392 15.0986623,43.4467818 15.0986623,44.1285344 L15.0986623,44.1285344 Z" id="Path" fill="#F26A3A"></path>
        <path d="M54.9295073,45 L55.1473177,45 C58.7355257,44.8495952 59.2401456,43.6463564 59.943009,40.6596732 C60.9970467,40.7466021 63.6720472,43.7781519 66.1235731,39.8727245 C66.785758,38.8175963 66.7002815,38.768651 66.7002815,37.2062251 C68.9414633,37.2556803 69.3188984,37.9834867 70.5305011,35.8171472 C71.8190841,33.5136588 70.534363,34.4153231 70.4061483,32.8896062 C71.4254291,32.8671729 72.4905375,32.3815437 72.7680785,31.3072963 C73.0566902,30.1909864 71.7863868,29.19653 71.0600946,29.0045727 C70.4445098,28.950274 69.8986964,29.3889972 69.4844446,29.8187982 C68.9553661,30.3673935 69.0794614,30.9631496 68.880188,31.8105152 C68.4749474,31.8105152 68.2476109,31.7829834 67.8524112,31.8719517 L67.3714775,32.0432603 C67.3235901,32.0626345 67.2687513,32.0904211 67.2221512,32.1113249 C67.1758086,32.1319737 67.1199399,32.1592505 67.0746271,32.180919 C64.948787,33.2011226 65.5677188,34.4237356 65.2783347,34.9399556 C64.8414266,35.7197664 63.8790443,34.3992629 61.6921864,35.0503374 C61.033091,35.2463736 60.7346959,35.5627336 60.31478,36.0636582 C59.4728886,37.0685664 59.7249411,38.5129628 59.7249411,40.2280878 L59.5071307,40.2280878 C59.5071307,38.6666816 59.5802491,38.6756039 57.6765962,37.5077996 C55.7773202,36.3430543 53.4686841,37.0777437 52.4818432,39.0995416 C52.1386502,39.8026205 51.4321823,40.8715146 52.0626998,42.2017052 C52.2452383,42.5871495 52.032577,42.1387391 52.3165545,42.5991309 C52.3412706,42.6394088 52.3749977,42.6926878 52.3997138,42.7327108 C52.4339558,42.7875193 52.5261262,42.9506703 52.5611407,43.0047141 L53.9684123,44.4154605 C54.8247214,44.8891083 54.2801953,44.0583127 54.9295073,45 L54.9295073,45 Z" id="Path" fill="#089FC0"></path>
        <path d="M51.6066203,5.5364182 C51.6066203,6.49047111 52.0320129,6.62959312 52.4826513,7.25705649 L52.8891095,7.93157961 C52.5758085,8.81311422 50.413249,10.1981625 52.6187264,12.3436243 C53.3488364,13.0538923 53.3167742,11.8817701 53.3167742,13.8101914 C51.3402766,13.8549367 50.7517958,16.6175756 50.7517958,16.8582747 C50.7517958,17.5451414 51.4144994,19.0407672 51.9714228,19.534766 L52.8891095,20.1241701 C51.1915785,20.1241701 50.8366219,20.0161641 49.6995488,20.7943216 C49.573572,20.8804692 49.3327266,21.0347635 49.1916023,21.1479126 C48.0739686,22.0451338 49.9467057,20.3926422 48.9600979,21.3474666 L48.177729,22.2922618 C47.855592,22.8574932 47.7344119,24.0676746 47.8568542,24.7972293 C48.0550342,25.9788663 47.934359,25.4738097 48.4155449,26.2049074 L49.2754185,27.2888246 C50.3327147,28.2397917 51.0537362,27.9623191 53.1029418,27.9623191 C53.7732191,27.9623191 55.4540878,26.1552761 55.4540878,25.1317907 C55.4540878,22.8220055 55.8128313,22.6088222 53.7441864,20.7773492 C54.911302,20.6783437 55.5548187,20.2980083 56.3914662,19.7726364 C57.2998119,19.2022619 56.906734,19.4982497 57.4889033,18.0599699 C57.8726402,17.1123459 57.8054862,18.5655408 57.8054862,16.6404626 C57.8054862,16.374305 56.9955994,13.8500507 55.2405079,13.8101914 C55.5798121,12.3256233 55.3122061,13.1230675 56.1990928,12.3917127 C58.2960131,10.6628454 56.8097899,7.70142399 54.385431,7.49595545 C54.5942141,7.20562506 56.6845705,6.09676356 54.5018143,4.32932268 C53.9759433,3.90347049 55.1561868,4.01250511 53.1029418,4.01250511 C52.4399858,4.01250511 51.6066203,5.53513241 51.6066203,5.5364182 L51.6066203,5.5364182 Z" id="Path" fill="#464881"></path>
        <path d="M35.5920426,52.9279955 C34.5254066,53.0165071 35.0322031,52.9562773 34.5653201,53.6777255 C33.7145321,54.9923063 33.8135281,53.912098 33.8135281,56.4755305 C33.8135281,57.2703019 34.1882425,57.5753789 34.6556507,58.2963033 L35.6298554,59.3202099 C36.8522066,60.3016937 37.7725806,60.0228035 39.8163099,60.0228035 C39.10023,61.0893946 39.0453489,62.8389392 39.4305668,63.9537142 C39.7635295,64.9166053 41.5092204,66.0091214 42.9287758,66.0091214 C43.6884455,66.0091214 43.322134,65.4851222 44.3832556,65.4586735 C45.7589587,65.4246305 43.9956744,66.314984 45.7355883,68.3096377 C47.2297191,70.0222588 49.213578,68.6697071 49.8209461,68.6697071 C51.2418145,68.6697071 49.4913971,70 52.0442861,70 C52.6211939,70 53.0271563,69.8321422 53.3257198,69.5045445 C54.0081883,68.7563857 54.100357,67.395716 52.7364704,66.6279171 C51.0737576,65.6917366 51.3534148,67.5923794 50.2631458,65.3465937 C49.8968343,64.5924119 50.0528121,64.5177793 49.2941928,64.0948614 L47.7611989,63.4540688 C47.1267842,63.4189783 47.2286687,63.7895225 46.2636546,64.0136821 C46.2636546,62.3654807 46.4477294,61.2577762 45.2757952,59.8994634 C44.1414113,58.5848826 42.778575,58.6925106 41.1502614,58.6925106 L41.1502614,59.3576571 L40.0387226,59.3576571 C40.0831002,59.3285897 40.1450711,59.2214854 40.1702797,59.2678361 L40.9278486,59.1361162 C40.9478053,58.2515238 43.0984082,55.8329047 40.936514,53.3626975 C39.4263654,51.6372448 38.3276935,52.0410463 35.5920426,52.0410463 L35.5920426,52.9279955 L35.5920426,52.9279955 Z" id="Path" fill="#FFC331"></path>
        <path d="M19.81,4.56845913 C19.81,6.9139959 20.4626041,5.05418048 20.9315888,6.80817426 C23.1673474,6.80817426 22.0982213,6.78224795 23.3991901,5.91239403 C23.3991901,7.33966347 23.2508108,7.60501124 24.0054257,8.44311868 C26.2168077,10.89871 27.5530166,9.19683334 28.110234,9.04815393 C28.110234,12.2421157 27.6995412,12.5249241 28.9260554,13.6093314 C30.4469435,14.95406 30.54445,14.6479708 33.2701253,14.6479708 C31.6043023,16.225507 31.4005457,18.1355877 32.6053329,20.0155093 C33.0732577,20.7459432 33.0390775,20.8927707 34.3646879,21.6184426 C36.8516315,22.9798381 39.7757643,20.3723928 39.7757643,18.9035883 C39.7757643,16.5395328 40.0468215,16.3210111 39.0635434,15.135015 C38.1706178,14.0574861 38.4342561,14.2987594 36.7999637,13.7937256 C35.2168092,13.3043005 35.9388336,13.9760034 33.7187079,13.9760034 C34.8384419,12.3064024 35.0647204,12.8490029 35.0647204,10.6161662 C35.0647204,9.54260557 34.0159964,8.54153281 33.2672107,7.93094191 C32.1360833,7.00870627 30.6255287,7.67326621 29.2320877,7.70421904 C29.1454448,8.74444581 29.4726742,8.09602368 28.7832402,8.60026382 C28.3076315,7.45024709 30.2439818,7.56982555 28.3622139,4.98883562 C26.5681488,2.5276887 24.3445784,4.83433602 24.0721964,5.01634925 C22.6647124,2.91737691 22.9074186,3.0004469 21.3801713,3.0004469 C20.8375269,3.0004469 19.81,4.02638775 19.81,4.56845913 L19.81,4.56845913 Z" id="Path" fill="#953989"></path>
        <path d="M11.4499372,12.9261321 C10.2419627,12.5103201 11.3786766,12.0699891 9.42379462,12.0699891 C8.73698014,12.0699891 9.21479881,12.0869249 8.71437881,12.465832 C6.88393713,13.8512822 8.07968034,15.7081544 10.0991755,15.7081544 C10.6588907,15.7081544 10.9455288,15.1730334 11.4499372,14.8522642 C12.5855875,15.4235317 11.9157905,15.312817 12.9767234,15.9687636 C13.0174058,15.9940409 13.0756375,16.0246265 13.1173834,16.0491455 C13.9711819,16.5511532 14.2134149,17.0048811 15.8726183,16.0602675 C16.5708664,15.662908 16.5456061,16.0031408 16.6277686,15.0661104 L17.0779338,15.0661104 C17.1781774,16.2114259 18.7025705,18.4904295 19.7794573,18.4904295 C24.7076104,18.4904295 21.7601313,18.1031809 23.6065269,17.6342865 C23.6065269,20.0596458 23.3496695,19.8604604 24.3345556,21.2226554 L25.2766321,22.2532119 C26.6311164,23.1695149 26.4295657,22.9847377 28.5594086,22.9847377 C28.9906951,22.9847377 28.8202545,22.9971236 29.126303,22.8816062 L30.6863265,21.7961979 C30.7711479,21.7127828 30.8990449,21.5467107 30.9867912,21.4400404 C33.304358,18.6264215 30.4315962,13.966294 26.0706035,15.4824279 L25.2298341,15.967247 C24.3922554,16.5721333 24.6459221,16.494532 24.2819078,16.9922425 C24.2819078,15.4472924 24.6892635,15.3444137 24.2061268,13.857096 C23.9250727,12.9921059 23.947674,13.1526169 23.197044,12.4595127 L22.9734238,12.2438971 C22.2116261,11.6349664 22.3560087,11.8558902 20.0046729,11.8558902 C19.2410139,11.8558902 19.1809209,12.0121041 18.7288944,12.3553701 C18.106959,12.8278033 18.0505886,12.7438826 17.9785303,13.5681761 C16.4022871,13.1680361 17.283473,11 14.1514607,11 C12.730236,11 12.4752398,12.0788362 11.4499372,12.9261321 L11.4499372,12.9261321 Z" id="Path" fill="#AD398C"></path>
        <path d="M42.81,54.1113269 C42.81,55.3500494 42.9218916,55.7985663 43.4274567,56.4196722 L43.639948,56.6521172 C45.3853026,58.5318081 45.5439012,58.2019295 47.5900285,58.2019295 C48.4099679,58.2019295 47.9867816,58.2166922 48.4299852,57.9439853 L49.8050197,56.7452562 C50.294417,56.2741928 49.4932117,56.4532237 49.9802994,56.6113185 C49.9959539,56.6459437 50.0023697,56.6714429 50.002883,56.7240517 C50.0033963,56.7798814 50.020334,56.8228274 50.020334,56.8451056 C50.0113518,58.4797362 49.2684021,59.766236 51.1035778,61.3447684 C52.2956337,62.3701032 54.1603221,62.424054 55.3634132,61.3324214 C55.3972886,61.301554 55.4491283,61.2612922 55.4819772,61.2293511 C55.4822338,61.2293511 55.8746242,61.0978292 56.0640187,60.2472308 L56.4987533,60.2472308 C56.6858381,62.6012061 59.7957052,64.0299645 61.3088078,62.0968595 C61.6388366,61.6749155 61.4781849,61.6067388 62.098208,61.104271 L62.3651053,60.9289979 C63.2707598,61.563256 62.8498832,61.8381101 64.1035308,61.8381101 C64.2516075,61.8381101 66.345725,60.8562581 65.6795082,59.2809467 C65.450849,58.7406329 64.4078964,56.9650859 62.8914576,58.2977527 C62.4826428,58.6571566 62.5670747,58.7288227 61.9306272,58.8836966 C60.6695374,57.9174125 60.2689347,56.2019899 58.0998807,57.6041754 C57.4549643,58.0210196 57.6356333,57.3797828 57.3677095,58.4292747 L56.9332314,58.4292747 C56.8521357,57.4119923 56.7125278,57.599344 56.1879719,56.7090206 L55.3467321,55.5433062 C53.4725483,53.7631963 50.8323178,55.6463765 50.6321448,55.7022063 C50.6321448,55.0048713 50.6811615,54.0976379 50.6347111,53.4268757 C50.5661903,52.442608 50.1014297,51.7399048 49.4270007,51.0538431 L48.5470094,50.3836177 C47.4198814,49.8218309 45.2564733,49.7090978 43.9561187,51.2197219 C43.2064965,52.090988 42.81,52.158091 42.81,54.1113269 L42.81,54.1113269 Z" id="Path" fill="#64BDAB"></path>
        <path d="M55.2519402,45.161484 L55.029517,45.161484 C53.7449312,45.1055883 51.6942211,44.7891162 50.6843779,45.4744457 L50.2074563,45.8994688 C48.8666075,47.1891196 49.1479228,46.8499652 48.9644106,47.8296246 C48.5503249,50.0400687 48.9241851,51.4604128 50.6349505,52.6220706 C51.8127942,53.4218917 53.9836549,53.5282825 55.1152262,52.5405223 C56.5906858,51.2524917 55.7438477,51.3731939 56.8102169,51.0807543 C58.0877041,52.0420518 56.2347035,52.0776954 59.4409098,53.6492547 C60.3658326,54.1026307 60.4678423,54.1258531 61.3120513,53.6641063 C62.0408421,53.2652758 62.6410691,53.1402531 63.0228167,52.6604145 C63.7537108,51.7420513 63.3243763,51.5014569 64.6010747,50.6233279 C64.7501456,51.196326 65.1552923,51.5136082 65.9003836,51.8262999 C66.7969119,52.202178 67.1762933,51.8927266 67.7452339,51.5700439 C67.9153377,51.4736441 68.3223247,51.2597824 68.4543063,51.1515014 C69.0952847,50.624948 68.5544756,51.2487113 69.0124675,50.3530305 C69.7344226,48.9407872 69.3721305,49.0833617 69.7207512,48.337276 C71.1549337,48.4598685 70.7842284,48.721795 72.3919325,48.337276 C73.1259816,46.7662567 72.7402903,46.6714771 72.3919325,45.1363714 C70.0833063,45.1363714 72.2357631,44.7099982 69.4983281,45.3650846 C69.4186659,46.3471742 69.275642,46.7819183 69.275642,48.1085628 C68.9270213,47.5930806 68.5515836,45.9715661 66.3828263,46.0226013 C65.0175266,46.0547346 63.9971669,47.3025311 63.7105933,48.5657192 C63.099324,47.843396 63.4245456,47.6919106 62.4562423,47.1108117 C61.8575927,46.7514052 61.1351118,46.2518545 60.3718796,46.2526646 C59.5263561,46.2537447 58.950054,46.6658065 58.251498,47.0740879 C57.5058808,47.5099121 57.2787253,47.9503268 57.2553261,49.0231456 C56.4416149,48.4107235 57.1038891,48.1390759 56.3143657,47.0173822 C55.8495381,46.3574353 55.3273958,46.048794 55.2519402,45.161484 L55.2519402,45.161484 Z" id="Path" fill="#26B4E4"></path>
        <path d="M13.0599139,33.6331575 C12.8653642,32.8696713 11.9101845,32.0298906 11.31,32.0298906 C10.1486442,32.0298906 7.963125,31.740675 7.08132136,34.2445957 C6.77464075,35.1152188 7.05987697,35.5540475 6.92242618,36.3946398 C6.67697835,37.89591 5.72438238,35.729092 3.77190945,36.9638726 C3.18722687,37.3337115 2.19122539,38.723516 2.41316191,39.9618137 C2.56404774,40.8029471 2.87176181,40.8824882 3.21616388,41.4214196 C2.00080955,41.4214196 1.70653051,41.5723853 0.81,41.6505737 L0.81,44.8573779 C2.26796014,44.8573779 2.319375,45.298912 3.65383612,44.6282238 L3.9264124,42.1132106 C5.36473671,42.2387448 4.14395669,43.0831248 6.14887795,42.2016797 C7.41228839,41.6462449 7.19422736,41.7395839 7.95847441,39.9734473 C7.98637795,39.9087864 8.0592372,39.7139919 8.09049951,39.6536597 C8.23492618,39.3752659 8.06052904,39.0792865 8.82374262,39.0822625 C10.8896383,39.0909201 11.7753174,39.8176117 13.1699779,37.8715607 C13.8709252,36.8935301 13.935,35.6725475 13.935,34.3203491 C13.9644537,34.3690477 13.9944242,34.3942087 14.0037254,34.4772669 C14.3468356,37.5271533 18.6744685,38.0436292 20.1810015,36.508811 C20.9139862,35.7623694 21.81,34.2564998 21.81,33.1751199 C21.81,32.4202913 21.5273474,32.2936748 21.11422,31.1549388 C20.2820226,28.8620454 17.0413361,28.4794907 15.5766585,29.6258021 C14.0737426,30.8018738 14.4693012,30.9111751 13.890561,32.2125105 C13.6495054,32.7546885 13.480534,33.3106644 13.0599139,33.6331575 L13.0599139,33.6331575 Z" id="Path" fill="#E6306A"></path>
        <path d="M35.81,1.31324004 C36.1441152,1.82069874 36.3882861,2.023372 36.4553632,2.84543959 C36.8801849,2.94600068 37.4518649,3.14738139 38.0001696,3.1388505 C38.6841529,3.127993 38.6254605,2.80097555 39.2520217,3.06414058 C38.7677453,3.73678834 39.3904953,3.41726773 38.3914528,3.5020596 C38.3914528,4.52318129 37.909463,8.08185498 41.1116332,7.78741002 C43.1114969,7.60360812 42.3614527,7.10778245 42.9089951,7.87944023 C40.7114572,7.87944023 41.6589215,7.65091578 40.7422009,9.61457155 C40.3272883,10.5033352 40.3275424,9.37570663 40.3275424,11.6002008 C40.3275424,12.5192103 41.4632799,13.660023 42.1551398,14.1183645 C42.8868902,14.6028156 43.0840563,14.7889441 44.1997215,14.8833009 L43.0279046,15.4422035 C42.3779679,15.8413457 42.0806943,16.3082181 41.7061804,16.9428646 C41.5186694,17.2603171 41.4945318,17.2610926 41.3756223,17.487549 C41.0224512,18.1589042 40.9502924,18.8889415 41.1893817,19.6815388 C41.4246598,20.4612104 41.1726124,19.762453 41.4609932,20.2949873 L41.7813881,20.8461345 C41.9633094,21.2044319 41.9086822,21.2525151 42.1444684,21.5710017 C42.9046758,22.5967766 45.0547007,23.5809311 46.608654,22.5872116 C46.8495218,22.4328801 46.7814284,22.4533025 47.1203711,22.2325334 C47.1742361,22.1973758 47.3373554,22.1053456 47.3902041,22.0691539 C49.3763474,20.7101573 49.1563141,17.0796173 47.4887871,15.6955451 C46.7646591,15.0942466 46.8960185,15.4127331 46.1256479,15.1126009 C45.0707078,14.7015671 45.7722226,15.0611571 45.2754962,14.0079799 C47.2466489,13.8409813 47.7215244,10.4056177 46.4874578,8.83489991 C45.6553458,7.77577699 44.3638572,7.51674814 43.1242009,7.22282021 C43.2804601,5.31267638 44.140775,5.59497129 43.1958515,3.65096241 C42.5017049,2.2224261 41.4035711,2.40752057 39.4672275,2.40752057 C39.7657715,1.26231321 39.7169881,1.99079951 39.4303859,0.00620428364 L36.4553632,0 C36.3839667,0.875321017 36.327815,0.927281893 35.81,1.31324004 L35.81,1.31324004 Z" id="Path" fill="#713E8C"></path>
        <path d="M31.0763733,66.4953725 C30.9310403,67.8056256 30.1800208,67.1458065 30.1800208,68.4818685 C30.1800208,70.1735185 30.6094017,70.2626762 31.1748503,70.8130034 C31.2076759,70.8448082 31.2510905,70.8946009 31.2844456,70.9258843 C32.1188529,71.7079694 32.6239446,71.5721473 33.9901807,71.5721473 C33.9901807,73.4329883 34.0592734,73.9006752 34.984216,74 L37.3521643,74 C37.3881667,72.4048072 38.2869017,73.1595193 37.4641422,71.7035376 C36.4555471,69.9188195 35.5591946,71.9770066 35.5591946,69.8061992 C35.5591946,69.1886127 36.5145804,69.1672357 35.3373566,67.1559736 C34.959332,66.5102321 34.8547664,66.5686278 34.1884583,66.3003726 C33.3871414,65.9776322 33.5065315,66.0326388 32.8696077,65.6126591 C33.2320136,64.6261892 32.8719902,65.700774 33.3670224,64.7781744 C33.5216207,64.4898457 33.7045444,64.0383219 33.8469655,63.6923796 C34.365558,62.4342654 34.1389551,62.6383896 33.6926319,61.4973275 C33.1496847,60.1093873 33.5899193,60.6086182 32.4666991,59.8291401 L31.5099897,59.2261525 C29.9481233,58.6038735 28.4016108,59.3507647 27.6095592,60.4326491 C26.5623146,61.8623006 26.6433198,62.9298467 27.2810378,64.272426 C28.4222592,66.675252 29.4226479,65.7140695 31.0763733,66.4953725 L31.0763733,66.4953725 Z" id="Path" fill="#F89C35"></path>
        <path d="M9.69424531,25.0964421 C9.08800646,24.1379489 8.02085821,21.6791938 5.61924998,23.4590271 C5.15965221,23.7994094 4.80708406,23.9599919 4.57623586,24.4183101 C4.17277617,25.2183269 4.54580587,25.4786811 4.30839949,26.1733979 C3.85037568,27.5143934 2.71974417,25.4892111 1.58544008,26.9892097 C1.04163518,27.7078822 1.93643427,26.4158512 1.42410867,27.2729932 L1.26802381,27.5623049 C1.09410068,27.8510902 1.00700795,27.9219045 0.81,28.2170077 C1.33072008,28.997544 1.59934344,30 2.80893552,30 C4.27114898,30 4.77560476,29.2299937 4.80787104,27.7710622 C6.4007236,28.1980537 6.33409241,29.7801862 8.56859802,28.2017392 C9.17221359,27.7752742 9.4489691,27.7005112 9.47205392,26.6567249 C12.5431219,26.6567249 8.57594319,27.994035 14.3584282,27.994035 C15.5756278,27.994035 16.8014842,26.2650089 16.8014842,25.3194149 C16.8014842,23.9334036 16.9557327,23.2694871 15.9512807,22.1606781 C14.6711226,20.747552 12.3935952,20.6556778 11.2123345,21.7168386 C11.1784943,21.7473756 11.1307507,21.7929178 11.0976974,21.8245078 C11.0646441,21.8560978 11.0169005,21.9013768 10.9848966,21.9340198 C10.0381567,22.8956721 9.72624926,23.6556749 9.69424531,25.0964421 L9.69424531,25.0964421 Z" id="Path" fill="#D33275"></path>
        <path d="M31.81,48.0109306 C31.81,49.7719843 31.9361642,49.9761493 32.8331294,50.9726314 C33.6101864,51.835621 33.9662615,52 35.7826095,52 C37.2029999,52 37.8004553,51.778036 38.4938373,50.9548324 C38.7258335,50.6794714 38.7060226,50.6805184 38.8684199,50.44442 C38.9054351,50.3907612 39.0063143,50.230832 39.0430688,50.1769115 C39.7025637,49.2055574 40.1759402,47.9525603 39.4309456,46.5634533 C38.873112,45.5232589 37.7290317,44.0218611 36.4447111,44.0218611 C34.8163061,44.0218611 34.244657,43.7184929 32.7132213,45.3719674 C32.021664,46.1184783 31.81,46.60036 31.81,48.0109306 L31.81,48.0109306 Z" id="Path" fill="#FFC331"></path>
        <path d="M17.81,24.8055484 C17.81,26.1549066 17.9905461,27.0450295 19.4310184,28.2157962 C21.8641045,30.1934461 26.9599212,28.3436193 25.5755611,23.6474093 C25.3838446,22.9972125 25.2539553,22.9920583 24.8990977,22.5730254 C22.0236086,19.1784978 17.81,21.9120048 17.81,24.8055484 Z" id="Path" fill="#D33275"></path>
        <path d="M43.9387392,48.9981399 C46.5978236,48.9981399 45.4335801,49.0597732 46.4859772,48.4734929 C46.9200975,48.2317987 47.1952918,48.1821356 47.571408,47.8113171 C47.9683328,47.4203787 47.9475242,47.2311493 48.1410446,46.8595668 C49.0095453,45.1929213 48.7835114,47.4595999 48.7835114,44.6855927 C48.7835114,44.0669678 48.6123603,43.909319 48.2495096,43.2677725 C48.0104703,42.8447441 48.1928061,43.0808352 47.9235943,42.724279 C46.9229587,41.3983994 45.2642497,40.5897808 43.714266,41.2152823 C42.6949026,41.62685 41.5090701,41.6925582 41.0021195,43.7610935 C40.4681177,45.9393971 41.0276101,47.3852325 42.9282195,48.4780772 C43.4697644,48.7895545 43.4081188,48.9981399 43.9387392,48.9981399 L43.9387392,48.9981399 Z" id="Path" fill="#26B4E4"></path>
        <path d="M29.81,25.2086501 C29.81,27.8442769 30.3578722,28.0241184 30.3646521,28.0340057 C32.0630298,30.4459662 32.1417815,29.9598864 35.1087922,29.9598864 C36.2282664,29.9598864 39.3491299,26.5335449 36.8880078,23.3856505 C35.5179362,21.6329306 34.7283327,22.0412483 32.2385262,22.0412483 C31.8061739,22.0412483 31.4796932,22.4434199 31.0687239,22.8787272 C30.7821406,23.1822933 30.9844961,22.949007 30.7709276,23.2523059 L30.2261847,24.0513045 C29.9252592,24.4946286 29.81,24.4810002 29.81,25.2086501 L29.81,25.2086501 Z" id="Path" fill="#AD398C"></path>
        <path d="M39.81,27.9934412 C39.81,29.4362005 40.0302306,29.9846466 40.8617458,30.6958842 C41.1011612,30.9008039 41.768686,31.4133631 41.9989032,31.5519699 C43.1970314,32.2736096 44.81118,32.1170593 46.0936686,31.128868 C47.2639395,30.2275336 46.6179647,30.782481 47.2571066,29.6379995 C48.2943981,27.7802 47.8355405,26.3379609 46.18749,24.7654365 C45.1462565,23.7717843 45.04166,24.0302743 42.7026951,24.0302743 C41.8950952,24.0302743 41.2294101,24.5880822 40.5658273,25.2187043 C39.9834513,25.7723514 39.81,26.9594811 39.81,27.9934412 Z" id="Path" fill="#713E8C"></path>
        <path d="M22.8513711,31.4535303 C22.8513711,33.9374804 22.4419231,34.7252266 24.1992267,36.0920756 C25.630419,37.2050142 27.9134667,37.4261451 29.358325,36.0088263 C31.0797216,34.320427 30.7919289,34.0620941 30.7919289,31.8942311 C30.7919289,31.3512898 30.5700553,31.4683591 30.016711,30.6644833 L29.153601,29.7404164 C29.1168901,29.7115393 29.0643692,29.6709553 29.0273903,29.6425985 L28.7800601,29.4420198 C27.9022122,28.8327392 27.4817777,29.0307164 25.8005757,29.0307164 C24.7340816,29.0307164 22.8513711,30.7630817 22.8513711,31.4535303 L22.8513711,31.4535303 Z" id="Path" fill="#E6306A"></path>
    </g>
</svg>