<svg xmlns="http://www.w3.org/2000/svg" xmlns:xlink="http://www.w3.org/1999/xlink" width="173" height="33" viewBox="0 0 173 33">
    <defs>
        <path id="a" d="M.029.308H11.19v25.351H.029z"/>
        <path id="c" d="M.438.107h35.699V31.99H.438z"/>
    </defs>
    <g fill="none" fill-rule="evenodd">
        <g transform="translate(0 3.823)">
            <mask id="b" fill="#fff">
                <use xlink:href="#a"/>
            </mask>
            <path fill="#006FCC" d="M11.191.308l-4.46 25.351H0L4.46.308h6.731" mask="url(#b)"/>
        </g>
        <path fill="#006FCC" d="M33.862 11.954h-6.7l.036-.507c.049-.676-.199-1.237-.742-1.684-.544-.447-1.528-.67-2.952-.67-2.222 0-3.332.7-3.332 2.1 0 .507.157.894.47 1.159.314.266.821.483 1.522.652l4.527 1.159c4.007 1.038 6.012 3.32 6.012 6.845 0 1.038-.2 2.058-.598 3.06-.398 1.002-1.002 1.95-1.81 2.843-.81.894-1.962 1.618-3.459 2.173-1.497.555-3.236.833-5.215.833-1.738 0-3.266-.157-4.581-.471-1.317-.314-2.36-.717-3.133-1.213-.773-.495-1.383-1.086-1.83-1.775-.446-.688-.724-1.382-.832-2.082a7.93 7.93 0 0 1-.018-2.21l.072-.579H18l-.036.471c-.072.724.175 1.304.743 1.739.567.434 1.623.651 3.168.651 2.51 0 3.767-.76 3.767-2.282 0-.53-.194-.96-.58-1.285-.386-.326-1.038-.61-1.955-.851l-4.238-1.087c-3.598-.941-5.396-3.235-5.396-6.88 0-.99.211-1.968.634-2.934.422-.966 1.038-1.86 1.847-2.68.809-.82 1.901-1.485 3.278-1.992 1.376-.507 2.933-.76 4.672-.76 3.621 0 6.253.76 7.895 2.281 1.641 1.521 2.354 3.296 2.136 5.324l-.072.652"/>
        <path fill="#424240" d="M86.062 12.042c-1.07-1.311-2.465-1.948-4.264-1.948-2.726 0-4.644 1.06-5.863 3.24l-.615 1.099-.47-1.167c-.413-1.024-1.043-1.789-1.927-2.34-.885-.552-1.907-.832-3.038-.832-2.197 0-3.844.806-5.034 2.465l-1.154 1.608.09-2.839-5.831 6.729-1.94 10.823h5.102l1.914-10.546c.212-1.223.615-2.161 1.198-2.789.621-.668 1.534-1.007 2.713-1.007.974 0 1.719.3 2.214.892.642.769.807 1.951.507 3.611l-1.7 9.839h5.103l1.856-10.525c.213-1.19.618-2.121 1.203-2.77.627-.695 1.55-1.047 2.745-1.047.985 0 1.736.302 2.234.899.643.77.81 1.95.51 3.604l-1.7 9.839h5.104l2.035-11.54c.406-2.25.08-3.983-.992-5.298M98.013 14.538c-.935 0-1.717.31-2.327.92a3.858 3.858 0 0 0-1.091 2.116l-.58 3.368c-.194 1.103-.077 2.032.344 2.759.463.8 1.315 1.205 2.531 1.205 1.535 0 3.48-.638 4.034-3.675l.399-2.519c.228-1.37.036-2.432-.572-3.15-.576-.68-1.497-1.024-2.738-1.024zM94.68 29.314c-2.01 0-3.567-.661-4.762-2.022-1.19-1.354-1.581-3.142-1.198-5.462l.869-5.067c.36-2.026 1.205-3.667 2.513-4.873 1.308-1.209 2.84-1.796 4.68-1.796 1.044 0 2.047.208 2.98.619.909.4 1.58.959 2.05 1.707l.692 1.1.948-2.992h4.418l-3.193 18.352h-4.519l.116-3.179-1.137 1.412c-1.195 1.48-2.652 2.201-4.457 2.201zM107.537 28.88l3.276-18.352h4.467l-.164 4.03 1.169-1.596c1.377-1.882 3.225-2.796 5.651-2.796.178 0 .358.005.543.015l-.849 4.828h-1.05c-1.81 0-3.237.36-4.242 1.07-1.033.73-1.706 1.875-2 3.402l-1.7 9.399h-5.101M133.62 28.88l-3.095-7.2-3.027 2.863-.769 4.337h-5.101l4.47-25.233h5.102l-2.51 14.164 7.281-7.283h6.095l-7.683 7.519 4.896 10.833h-5.66M150.31 13.524c-1.877 0-3.022.952-3.312 2.752l-.257 1.604h6.795l.156-.938c.145-.99-.014-1.804-.47-2.429-.488-.665-1.44-.989-2.913-.989zm-1.015 15.79c-1.6 0-2.994-.168-4.142-.5-1.11-.323-1.955-.746-2.512-1.26a5.647 5.647 0 0 1-1.326-1.833 4.733 4.733 0 0 1-.418-2.17c.035-.835.1-1.699.194-2.567l.72-4.072c.818-4.588 3.634-6.818 8.606-6.818 1.452 0 2.731.173 3.801.514 1.042.333 1.854.769 2.414 1.296a6.686 6.686 0 0 1 1.395 1.877c.343.685.516 1.399.516 2.12 0 .785-.047 1.583-.139 2.374l-.449 2.456H146.22l-.234 1.292c-.198 1.186-.051 2.114.435 2.767.51.687 1.498 1.021 3.019 1.021 2.164 0 2.853-1.069 3.043-1.991h4.717l-.097.563c-.597 3.317-3.151 4.931-7.808 4.931zM168.026 28.88c-1.702 0-3.1-.184-4.155-.547-.984-.338-1.65-.778-1.98-1.306-.36-.577-.597-1.265-.705-2.046-.11-.79-.053-1.651.17-2.564l.005-.019 1.436-8.15h-2.388l.654-3.647h2.378l.843-4.781h5.1l-.854 4.78h4.345l-.653 3.649h-4.342l-1.425 7.982c-.163.957.037 1.635.594 2.022.463.322 1.303.472 2.643.472h.949l-.73 4.155h-1.885"/>
        <g transform="translate(34.409)">
            <mask id="d" fill="#fff">
                <use xlink:href="#c"/>
            </mask>
            <path fill="#006FCC" d="M22.752 3.24c-1.014 1.173-8.128 9.583-9.128 10.766-.107.126-.22.247-.364.406-.067-.175-.115-.293-.158-.413-.417-1.161-1.597-4.448-1.996-5.618-.092-.27-.247-.36-.553-.356-1.148.018-2.289.006-3.433.009-.13 0-.263.018-.442.032.068.205.113.351.165.495.84 2.347 2.438 6.822 3.268 9.175.047.132.043.361-.047.482-.345.461-.735.896-1.144 1.383-.065-.17-.118-.297-.165-.428a3380.1 3380.1 0 0 1-3.85-10.766c-.097-.276-.242-.39-.572-.383-1.135.022-2.261.007-3.391.01-.143 0-.291.016-.504.03 2.003 5.58 4.734 13.218 6.728 18.773l2.7-3.206A5647.519 5647.519 0 0 1 27.417 2.946c-1.37.001-2.739.004-4.11.01-.166.001-.43.14-.556.284M35.754.108L31.922.107C26.31 6.705 11.491 23.94 8.007 28.067c-.211.251-.272.433-.17.684.228.556.413 1.134.617 1.703l.563 1.565C15.169 24.717 30.002 7.427 36.137.144c-.175-.017-.276-.036-.383-.036" mask="url(#d)"/>
        </g>
        <path fill="#2F64A1" d="M5.526 8.626l-.053-.05c.021-.012.044-.034.064-.033.02.003.037.03.055.047a8.092 8.092 0 0 0-.066.036"/>
    </g>
</svg>
